{
  "accessors": [
    {
      "bufferView": 2,
      "componentType": 5126,
      "count": 13444,
      "max": [
        15.942300796508789,
        9.25181770324707,
        7.634591579437256
      ],
      "min": [
        -16.225868225097656,
        -7.099384307861328,
        -26.213951110839844
      ],
      "type": "VEC3"
    },
    {
      "bufferView": 2,
      "byteOffset": 161328,
      "componentType": 5126,
      "count": 13444,
      "max": [
        1.0,
        1.0,
        1.0
      ],
      "min": [
        -1.0,
        -1.0,
        -1.0
      ],
      "type": "VEC3"
    },
    {
      "bufferView": 3,
      "componentType": 5126,
      "count": 13444,
      "max": [
        1.0,
        1.0,
        0.7298940420150757,
        1.0
      ],
      "min": [
        -0.9999998807907104,
        -1.0,
        -0.7298988103866577,
        1.0
      ],
      "type": "VEC4"
    },
    {
      "bufferView": 1,
      "componentType": 5126,
      "count": 13444,
      "max": [
        0.9999995231628418,
        0.9985909461975098
      ],
      "min": [
        0.0,
        0.0
      ],
      "type": "VEC2"
    },
    {
      "bufferView": 0,
      "componentType": 5125,
      "count": 45840,
      "type": "SCALAR"
    },
    {
      "bufferView": 2,
      "byteOffset": 322656,
      "componentType": 5126,
      "count": 2599,
      "max": [
        0.9983459711074829,
        1.0003710985183716,
        1.000362515449524
      ],
      "min": [
        -0.997893750667572,
        -0.9886330366134644,
        -0.9996732473373413
      ],
      "type": "VEC3"
    },
    {
      "bufferView": 2,
      "byteOffset": 353844,
      "componentType": 5126,
      "count": 2599,
      "max": [
        0.9995789527893066,
        0.999997615814209,
        0.9996435642242432
      ],
      "min": [
        -0.9993977546691895,
        -0.9995250701904297,
        -0.9982914924621582
      ],
      "type": "VEC3"
    },
    {
      "bufferView": 3,
      "byteOffset": 215104,
      "componentType": 5126,
      "count": 2599,
      "max": [
        0.9979318380355835,
        0.9998535513877869,
        0.9229746460914612,
        1.0
      ],
      "min": [
        -0.999949038028717,
        -0.9997017979621887,
        -0.9318925738334656,
        -1.0
      ],
      "type": "VEC4"
    },
    {
      "bufferView": 1,
      "byteOffset": 107552,
      "componentType": 5126,
      "count": 2599,
      "max": [
        1.0,
        0.9835479259490967
      ],
      "min": [
        0.0,
        0.0
      ],
      "type": "VEC2"
    },
    {
      "bufferView": 0,
      "byteOffset": 183360,
      "componentType": 5125,
      "count": 9090,
      "type": "SCALAR"
    },
    {
      "bufferView": 2,
      "byteOffset": 385032,
      "componentType": 5126,
      "count": 2376,
      "max": [
        1.4299712181091309,
        1.008734941482544,
        1.1166572570800781
      ],
      "min": [
        -1.1152729988098145,
        -1.4298171997070313,
        -0.07000000029802322
      ],
      "type": "VEC3"
    },
    {
      "bufferView": 2,
      "byteOffset": 413544,
      "componentType": 5126,
      "count": 2376,
      "max": [
        0.9999813437461853,
        0.9998759627342224,
        1.0
      ],
      "min": [
        -0.9999815821647644,
        -0.9998759627342224,
        -1.0
      ],
      "type": "VEC3"
    },
    {
      "bufferView": 3,
      "byteOffset": 256688,
      "componentType": 5126,
      "count": 2376,
      "max": [
        1.0680156492526294e-06,
        0.745421826839447,
        1.0,
        1.0
      ],
      "min": [
        -0.666604220867157,
        -1.2238383533258457e-06,
        -1.0,
        1.0
      ],
      "type": "VEC4"
    },
    {
      "bufferView": 1,
      "byteOffset": 128344,
      "componentType": 5126,
      "count": 2376,
      "max": [
        0.9124660491943359,
        1.0
      ],
      "min": [
        0.0,
        0.0
      ],
      "type": "VEC2"
    },
    {
      "bufferView": 0,
      "byteOffset": 219720,
      "componentType": 5125,
      "count": 6948,
      "type": "SCALAR"
    },
    {
      "bufferView": 2,
      "byteOffset": 442056,
      "componentType": 5126,
      "count": 700,
      "max": [
        1.4261549711227417,
        0.9822997450828552,
        0.09404662251472473
      ],
      "min": [
        -1.088391900062561,
        -1.4253653287887573,
        -0.067829929292202
      ],
      "type": "VEC3"
    },
    {
      "bufferView": 2,
      "byteOffset": 450456,
      "componentType": 5126,
      "count": 700,
      "max": [
        0.9716721177101135,
        0.9909937977790833,
        0.9993884563446045
      ],
      "min": [
        -0.9759626984596252,
        -0.9707506895065308,
        -0.9973702430725098
      ],
      "type": "VEC3"
    },
    {
      "bufferView": 3,
      "byteOffset": 294704,
      "componentType": 5126,
      "count": 700,
      "max": [
        0.9881939888000488,
        0.8992267847061157,
        0.9917306900024414,
        1.0
      ],
      "min": [
        -0.8613391518592834,
        -0.9851222634315491,
        -0.9956258535385132,
        1.0
      ],
      "type": "VEC4"
    },
    {
      "bufferView": 1,
      "byteOffset": 147352,
      "componentType": 5126,
      "count": 700,
      "max": [
        1.0,
        0.9656983613967896
      ],
      "min": [
        0.0,
        0.0
      ],
      "type": "VEC2"
    },
    {
      "bufferView": 0,
      "byteOffset": 247512,
      "componentType": 5125,
      "count": 3024,
      "type": "SCALAR"
    },
    {
      "bufferView": 2,
      "byteOffset": 458856,
      "componentType": 5126,
      "count": 216,
      "max": [
        27.682769775390625,
        16.516572952270508,
        1.3826371431350708
      ],
      "min": [
        -1.0956051349639893,
        -5.131980895996094,
        -7.32158899307251
      ],
      "type": "VEC3"
    },
    {
      "bufferView": 2,
      "byteOffset": 461448,
      "componentType": 5126,
      "count": 216,
      "max": [
        1.0,
        1.0,
        1.0
      ],
      "min": [
        -1.0,
        -1.0,
        -1.0
      ],
      "type": "VEC3"
    },
    {
      "bufferView": 3,
      "byteOffset": 305904,
      "componentType": 5126,
      "count": 216,
      "max": [
        1.0,
        1.0,
        0.22451800107955933,
        1.0
      ],
      "min": [
        -1.0,
        -1.0,
        -1.0,
        1.0
      ],
      "type": "VEC4"
    },
    {
      "bufferView": 1,
      "byteOffset": 152952,
      "componentType": 5126,
      "count": 216,
      "max": [
        1.0,
        0.9948389530181885
      ],
      "min": [
        0.0,
        0.0
      ],
      "type": "VEC2"
    },
    {
      "bufferView": 0,
      "byteOffset": 259608,
      "componentType": 5125,
      "count": 444,
      "type": "SCALAR"
    },
    {
      "bufferView": 2,
      "byteOffset": 464040,
      "componentType": 5126,
      "count": 5262,
      "max": [
        26.092830657958984,
        1.5984236001968384,
        21.851743698120117
      ],
      "min": [
        -1.5984232425689697,
        -18.280609130859375,
        -1.0
      ],
      "type": "VEC3"
    },
    {
      "bufferView": 2,
      "byteOffset": 527184,
      "componentType": 5126,
      "count": 5262,
      "max": [
        1.0,
        1.0,
        1.0
      ],
      "min": [
        -1.0,
        -1.0,
        -1.0
      ],
      "type": "VEC3"
    },
    {
      "bufferView": 3,
      "byteOffset": 309360,
      "componentType": 5126,
      "count": 5262,
      "max": [
        1.0,
        1.0,
        1.0,
        1.0
      ],
      "min": [
        -0.9999862313270569,
        -1.0,
        -1.0,
        1.0
      ],
      "type": "VEC4"
    },
    {
      "bufferView": 1,
      "byteOffset": 154680,
      "componentType": 5126,
      "count": 5262,
      "max": [
        1.0,
        0.9958361387252808
      ],
      "min": [
        0.0,
        0.0
      ],
      "type": "VEC2"
    },
    {
      "bufferView": 0,
      "byteOffset": 261384,
      "componentType": 5125,
      "count": 16464,
      "type": "SCALAR"
    }
  ],
  "asset": {
    "extras": {
      "author": "euanford12321 (https://sketchfab.com/euanford12321)",
      "license": "CC-BY-4.0 (http://creativecommons.org/licenses/by/4.0/)",
      "source": "https://sketchfab.com/3d-models/worn-leather-office-chair-003b00c7cdd348888296b85c40275a50",
      "title": "Worn Leather Office Chair"
    },
    "generator": "Sketchfab-12.68.0",
    "version": "2.0"
  },
  "bufferViews": [
    {
      "buffer": 0,
      "byteLength": 327240,
      "name": "floatBufferViews",
      "target": 34963
    },
    {
      "buffer": 0,
      "byteLength": 196776,
      "byteOffset": 327240,
      "byteStride": 8,
      "name": "floatBufferViews",
      "target": 34962
    },
    {
      "buffer": 0,
      "byteLength": 590328,
      "byteOffset": 524016,
      "byteStride": 12,
      "name": "floatBufferViews",
      "target": 34962
    },
    {
      "buffer": 0,
      "byteLength": 393552,
      "byteOffset": 1114344,
      "byteStride": 16,
      "name": "floatBufferViews",
      "target": 34962
    }
  ],
  "buffers": [
    {
      "byteLength": 1507896,
      "uri": "scene.bin"
    }
  ],
  "images": [
    {
      "uri": "textures/Chair_Details_baseColor.png"
    },
    {
      "uri": "textures/Chair_Details_metallicRoughness.png"
    },
    {
      "uri": "textures/Chair_Details_normal.png"
    },
    {
      "uri": "textures/Leather_Seating_baseColor.png"
    },
    {
      "uri": "textures/Leather_Seating_metallicRoughness.png"
    },
    {
      "uri": "textures/Leather_Seating_normal.png"
    },
    {
      "uri": "textures/Chair_Arc_baseColor.png"
    },
    {
      "uri": "textures/Chair_Arc_metallicRoughness.png"
    },
    {
      "uri": "textures/Chair_Arc_normal.png"
    },
    {
      "uri": "textures/Leather_Top_baseColor.png"
    },
    {
      "uri": "textures/Leather_Top_metallicRoughness.png"
    },
    {
      "uri": "textures/Leather_Top_normal.png"
    },
    {
      "uri": "textures/Wood__Front_baseColor.png"
    },
    {
      "uri": "textures/Wood__Front_metallicRoughness.png"
    },
    {
      "uri": "textures/Wood__Front_normal.png"
    },
    {
      "uri": "textures/Wood_Legs_baseColor.png"
    },
    {
      "uri": "textures/Wood_Legs_metallicRoughness.png"
    },
    {
      "uri": "textures/Wood_Legs_normal.png"
    }
  ],
  "materials": [
    {
      "doubleSided": true,
      "name": "Chair_Details",
      "normalTexture": {
        "index": 2
      },
      "occlusionTexture": {
        "index": 1
      },
      "pbrMetallicRoughness": {
        "baseColorTexture": {
          "index": 0
        },
        "metallicFactor": 0.0,
        "metallicRoughnessTexture": {
          "index": 1
        }
      }
    },
    {
      "doubleSided": true,
      "name": "Leather_Seating",
      "normalTexture": {
        "index": 5
      },
      "occlusionTexture": {
        "index": 4
      },
      "pbrMetallicRoughness": {
        "baseColorTexture": {
          "index": 3
        },
        "metallicFactor": 0.0,
        "metallicRoughnessTexture": {
          "index": 4
        }
      }
    },
    {
      "doubleSided": true,
      "name": "Chair_Arc",
      "normalTexture": {
        "index": 8
      },
      "occlusionTexture": {
        "index": 7
      },
      "pbrMetallicRoughness": {
        "baseColorTexture": {
          "index": 6
        },
        "metallicFactor": 0.0,
        "metallicRoughnessTexture": {
          "index": 7
        }
      }
    },
    {
      "doubleSided": true,
      "name": "Leather_Top",
      "normalTexture": {
        "index": 11
      },
      "occlusionTexture": {
        "index": 10
      },
      "pbrMetallicRoughness": {
        "baseColorTexture": {
          "index": 9
        },
        "metallicFactor": 0.0,
        "metallicRoughnessTexture": {
          "index": 10
        }
      }
    },
    {
      "doubleSided": true,
      "name": "Wood__Front",
      "normalTexture": {
        "index": 14
      },
      "occlusionTexture": {
        "index": 13
      },
      "pbrMetallicRoughness": {
        "baseColorTexture": {
          "index": 12
        },
        "metallicFactor": 0.0,
        "metallicRoughnessTexture": {
          "index": 13
        }
      }
    },
    {
      "doubleSided": true,
      "name": "Wood_Legs",
      "normalTexture": {
        "index": 17
      },
      "occlusionTexture": {
        "index": 16
      },
      "pbrMetallicRoughness": {
        "baseColorTexture": {
          "index": 15
        },
        "metallicFactor": 0.0,
        "metallicRoughnessTexture": {
          "index": 16
        }
      }
    }
  ],
  "meshes": [
    {
      "name": "Chair Details_Chair Details_0",
      "primitives": [
        {
          "attributes": {
            "NORMAL": 1,
            "POSITION": 0,
            "TANGENT": 2,
            "TEXCOORD_0": 3
          },
          "indices": 4,
          "material": 0,
          "mode": 4
        }
      ]
    },
    {
      "name": "Leather Seating_Leather Seating_0",
      "primitives": [
        {
          "attributes": {
            "NORMAL": 6,
            "POSITION": 5,
            "TANGENT": 7,
            "TEXCOORD_0": 8
          },
          "indices": 9,
          "material": 1,
          "mode": 4
        }
      ]
    },
    {
      "name": "Chair Arc_Chair Arc_0",
      "primitives": [
        {
          "attributes": {
            "NORMAL": 11,
            "POSITION": 10,
            "TANGENT": 12,
            "TEXCOORD_0": 13
          },
          "indices": 14,
          "material": 2,
          "mode": 4
        }
      ]
    },
    {
      "name": "Leather Top_Leather Top_0",
      "primitives": [
        {
          "attributes": {
            "NORMAL": 16,
            "POSITION": 15,
            "TANGENT": 17,
            "TEXCOORD_0": 18
          },
          "indices": 19,
          "material": 3,
          "mode": 4
        }
      ]
    },
    {
      "name": "Wood  Front_Wood  Front_0",
      "primitives": [
        {
          "attributes": {
            "NORMAL": 21,
            "POSITION": 20,
            "TANGENT": 22,
            "TEXCOORD_0": 23
          },
          "indices": 24,
          "material": 4,
          "mode": 4
        }
      ]
    },
    {
      "name": "Wood Legs_Wood Legs_0",
      "primitives": [
        {
          "attributes": {
            "NORMAL": 26,
            "POSITION": 25,
            "TANGENT": 27,
            "TEXCOORD_0": 28
          },
          "indices": 29,
          "material": 5,
          "mode": 4
        }
      ]
    }
  ],
  "nodes": [
    {
      "children": [
        1
      ],
      "matrix": [
        1.0,
        0.0,
        0.0,
        0.0,
        0.0,
        2.220446049250313e-16,
        -1.0,
        0.0,
        0.0,
        1.0,
        2.220446049250313e-16,
        0.0,
        0.0,
        0.0,
        0.0,
        1.0
      ],
      "name": "Sketchfab_model"
    },
    {
      "children": [
        2
      ],
      "matrix": [
        0.009999999776482582,
        0.0,
        0.0,
        0.0,
        0.0,
        0.0,
        0.009999999776482582,
        0.0,
        0.0,
        -0.009999999776482582,
        0.0,
        0.0,
        0.0,
        0.0,
        0.0,
        1.0
      ],
      "name": "f27e29a9dbc3451abce397231ef49a48.fbx"
    },
    {
      "children": [
        3,
        5,
        7,
        9,
        11,
        13
      ],
      "name": "RootNode"
    },
    {
      "children": [
        4
      ],
      "matrix": [
        8.817642211914063,
        0.0,
        0.0,
        0.0,
        0.0,
        -1.4365762597991302e-06,
        -8.817642211913945,
        0.0,
        0.0,
        2.817642211914025,
        -4.590521834481417e-07,
        0.0,
        0.839543342590332,
        20.752548217773438,
        78.73443603515625,
        1.0
      ],
      "name": "Chair Details"
    },
    {
      "mesh": 0,
      "name": "Chair Details_Chair Details_0"
    },
    {
      "children": [
        6
      ],
      "matrix": [
        119.50017547607422,
        0.0,
        0.0,
        0.0,
        0.0,
        -1.6210636188168453e-05,
        -99.5001754760729,
        0.0,
        0.0,
        24.4100646972653,
        -3.976904324477075e-06,
        0.0,
        0.0,
        -41.917327880859375,
        25.350248336791992,
        1.0
      ],
      "name": "Leather Seating"
    },
    {
      "mesh": 1,
      "name": "Leather Seating_Leather Seating_0"
    },
    {
      "children": [
        8
      ],
      "matrix": [
        74.43115817346775,
        -5.551115123125783e-15,
        66.78325159017211,
        0.0,
        66.78325159017204,
        -4.371138961900556e-06,
        -74.43115817346767,
        0.0,
        2.919188740735379e-06,
        99.9999999999999,
        -3.2534893446012347e-06,
        0.0,
        0.0,
        -57.43579864501953,
        0.0,
        1.0
      ],
      "name": "Chair Arc"
    },
    {
      "mesh": 2,
      "name": "Chair Arc_Chair Arc_0"
    },
    {
      "children": [
        10
      ],
      "matrix": [
        84.10720873601855,
        -6.2727600891321345e-15,
        75.46507429689449,
        0.0,
        75.46507429689441,
        -4.939387026947628e-06,
        -84.10720873601846,
        0.0,
        9.954433605907642e-06,
        340.99999999999966,
        -1.109439866509021e-05,
        0.0,
        0.0,
        61.97705841064453,
        -2.9550554752349854,
        1.0
      ],
      "name": "Leather Top"
    },
    {
      "mesh": 3,
      "name": "Leather Top_Leather Top_0"
    },
    {
      "children": [
        12
      ],
      "matrix": [
        9.984481811523438,
        0.0,
        0.0,
        0.0,
        -0.0,
        -7.193496400634492e-07,
        -4.41533660888666,
        0.0,
        0.0,
        16.876770019531026,
        -2.749574837521723e-06,
        0.0,
        -132.6259002685547,
        57.326377868652344,
        -8.271737098693848,
        1.0
      ],
      "name": "Wood  Front"
    },
    {
      "mesh": 4,
      "name": "Wood  Front_Wood  Front_0"
    },
    {
      "children": [
        14
      ],
      "matrix": [
        9.692593574523926,
        0.0,
        0.0,
        0.0,
        -0.0,
        -1.5791239302303377e-06,
        -9.692593574523798,
        0.0,
        0.0,
        7.692594051360983,
        -1.2532826491333086e-06,
        0.0,
        -117.25285339355469,
        -229.7302703857422,
        -52.29279327392578,
        1.0
      ],
      "name": "Wood Legs"
    },
    {
      "mesh": 5,
      "name": "Wood Legs_Wood Legs_0"
    }
  ],
  "samplers": [
    {
      "magFilter": 9729,
      "minFilter": 9987,
      "wrapS": 10497,
      "wrapT": 10497
    }
  ],
  "scene": 0,
  "scenes": [
    {
      "name": "Sketchfab_Scene",
      "nodes": [
        0
      ]
    }
  ],
  "textures": [
    {
      "sampler": 0,
      "source": 0
    },
    {
      "sampler": 0,
      "source": 1
    },
    {
      "sampler": 0,
      "source": 2
    },
    {
      "sampler": 0,
      "source": 3
    },
    {
      "sampler": 0,
      "source": 4
    },
    {
      "sampler": 0,
      "source": 5
    },
    {
      "sampler": 0,
      "source": 6
    },
    {
      "sampler": 0,
      "source": 7
    },
    {
      "sampler": 0,
      "source": 8
    },
    {
      "sampler": 0,
      "source": 9
    },
    {
      "sampler": 0,
      "source": 10
    },
    {
      "sampler": 0,
      "source": 11
    },
    {
      "sampler": 0,
      "source": 12
    },
    {
      "sampler": 0,
      "source": 13
    },
    {
      "sampler": 0,
      "source": 14
    },
    {
      "sampler": 0,
      "source": 15
    },
    {
      "sampler": 0,
      "source": 16
    },
    {
      "sampler": 0,
      "source": 17
    }
  ]
}
